                <svg xmlns="http://www.w3.org/2000/svg" width="32" height="15" viewBox="0 0 32 15" fill="none">
                  <path
                    d="M1 6.59753C0.447715 6.59753 0 7.04525 0 7.59753C0 8.14982 0.447715 8.59753 1 8.59753V6.59753ZM31.7071 8.30464C32.0976 7.91412 32.0976 7.28095 31.7071 6.89043L25.3431 0.526466C24.9526 0.135942 24.3195 0.135942 23.9289 0.526466C23.5384 0.916991 23.5384 1.55016 23.9289 1.94068L29.5858 7.59753L23.9289 13.2544C23.5384 13.6449 23.5384 14.2781 23.9289 14.6686C24.3195 15.0591 24.9526 15.0591 25.3431 14.6686L31.7071 8.30464ZM1 8.59753H31V6.59753H1V8.59753Z"
                    fill="#FBFCFF" />
                </svg>
